<?xml version="1.0" standalone="no"?>
<!DOCTYPE svg PUBLIC "-//W3C//DTD SVG 20010904//EN"
 "http://www.w3.org/TR/2001/REC-SVG-20010904/DTD/svg10.dtd">
<svg version="1.0" xmlns="http://www.w3.org/2000/svg"
 width="240.000000pt" height="240.000000pt" viewBox="0 0 240.000000 240.000000"
 preserveAspectRatio="xMidYMid meet">
<metadata>
Created by potrace 1.11, written by Peter Selinger 2001-2013
</metadata>
<g transform="translate(0.000000,240.000000) scale(0.100000,-0.100000)"
fill="#000000" stroke="none">
<path d="M1347 2159 c-9 -6 -15 -14 -12 -20 4 -5 1 -9 -6 -9 -7 0 -10 -3 -6
-6 13 -13 -25 -65 -77 -104 -29 -22 -56 -40 -60 -40 -13 0 -70 -54 -100 -96
-14 -18 -15 -18 -43 7 -34 32 -65 49 -90 49 -24 0 -103 -51 -103 -66 0 -6 -9
-19 -20 -29 -11 -10 -18 -21 -15 -24 6 -10 -13 -36 -27 -37 -52 -5 -81 -40
-93 -111 -4 -24 -10 -43 -13 -44 -4 0 -18 -3 -32 -5 -14 -2 -30 -5 -37 -6 -24
-3 -29 -75 -19 -253 1 -22 -2 -52 -7 -67 -7 -23 -12 -26 -27 -18 -9 5 -20 7
-23 3 -9 -8 -134 75 -157 105 -11 13 -20 22 -20 18 0 -4 -12 6 -26 21 l-26 28
23 -35 c27 -41 79 -91 132 -127 24 -17 36 -32 33 -42 -2 -9 -7 -26 -11 -39 -8
-26 -8 -118 -1 -147 2 -11 5 -25 5 -31 1 -5 10 -20 20 -31 16 -17 19 -36 19
-120 0 -55 6 -120 12 -144 20 -75 52 -159 62 -159 5 0 7 -4 4 -9 -3 -4 6 -21
19 -37 14 -16 25 -33 25 -38 0 -5 2 -7 5 -4 3 2 33 -21 67 -53 33 -32 69 -61
79 -64 12 -4 16 -14 14 -33 -2 -15 -4 -30 -4 -33 -1 -4 -15 -12 -31 -19 -16
-7 -30 -16 -30 -21 0 -4 -8 -10 -19 -14 -22 -7 -153 -133 -196 -189 -16 -21
-36 -45 -43 -52 -11 -12 76 -14 557 -14 314 0 571 3 571 6 0 12 -55 94 -62 94
-5 0 -8 5 -8 11 0 15 -78 109 -139 169 -58 57 -59 77 -2 107 43 22 133 91 139
105 2 5 8 8 13 8 6 0 19 9 31 20 12 11 27 19 32 18 6 0 18 2 26 5 8 3 31 10
51 15 35 9 35 9 37 -26 2 -19 5 -39 7 -43 3 -4 0 -10 -5 -12 -6 -3 -5 -4 2 -3
7 2 14 18 15 37 0 19 1 39 2 44 2 23 52 -52 58 -88 3 -24 9 -34 14 -26 10 17
4 45 -21 86 -25 43 -25 43 4 43 87 0 190 72 188 131 -1 24 8 41 34 67 19 19
34 40 34 48 0 8 5 14 11 14 5 0 7 5 4 10 -3 6 -2 10 3 10 14 0 29 92 21 124
-15 53 -54 84 -166 127 -19 7 -21 12 -13 36 5 15 8 42 7 58 -2 17 7 51 20 76
31 62 31 123 0 152 -26 24 -41 57 -27 57 16 0 0 71 -26 110 -15 22 -30 40 -34
40 -7 0 -30 45 -30 60 0 6 9 6 24 0 24 -9 24 -8 11 17 -25 48 -75 92 -128 112
-28 11 -49 20 -45 20 15 2 -34 97 -65 127 -42 41 -64 47 -172 49 -49 0 -90 3
-90 6 0 3 -5 12 -11 20 -11 14 -11 36 1 97 7 36 7 35 -18 21z m-247 -1999 c3
-1 10 -2 15 -1 6 1 2 -5 -8 -13 -15 -11 -24 -12 -43 -4 -36 16 -2 32 36 18z"/>
</g>
</svg>
