<?xml version="1.0" standalone="no"?>
<!DOCTYPE svg PUBLIC "-//W3C//DTD SVG 20010904//EN"
 "http://www.w3.org/TR/2001/REC-SVG-20010904/DTD/svg10.dtd">
<svg version="1.0" xmlns="http://www.w3.org/2000/svg"
 width="240.000000pt" height="240.000000pt" viewBox="0 0 240.000000 240.000000"
 preserveAspectRatio="xMidYMid meet">
<metadata>
Created by potrace 1.14, written by Peter Selinger 2001-2017
</metadata>
<g transform="translate(0.000000,240.000000) scale(0.100000,-0.100000)"
fill="#000000" stroke="none">
<path d="M1327 2104 c-3 -16 -19 -48 -36 -71 -24 -33 -38 -43 -60 -43 -33 0
-99 -45 -130 -89 -24 -33 -45 -40 -54 -17 -3 8 -16 20 -29 27 l-23 12 20 -23
20 -23 -22 12 c-56 29 -129 -2 -164 -70 -16 -32 -23 -39 -30 -28 -6 10 -9 10
-9 2 0 -7 -8 -13 -17 -13 -15 0 -15 -1 2 -14 17 -12 16 -13 -11 -20 -16 -4
-37 -15 -46 -23 -14 -12 -18 -13 -18 -3 0 31 -15 -5 -20 -48 -5 -45 -6 -47
-36 -47 -18 0 -42 -9 -54 -20 -22 -19 -22 -25 -18 -150 6 -163 2 -181 -37
-177 -43 5 -105 44 -177 110 -40 36 -55 46 -41 27 25 -35 72 -80 126 -120 33
-25 37 -32 32 -59 l-6 -31 14 25 c7 14 20 23 28 21 8 -2 27 -6 42 -9 21 -3 27
-9 22 -21 -37 -94 -58 -197 -62 -301 -9 -214 32 -318 188 -472 55 -54 99 -106
99 -117 0 -11 -25 -34 -67 -63 -71 -47 -180 -153 -234 -225 l-31 -43 566 0
c311 0 566 4 566 8 0 19 -106 157 -181 238 -65 69 -80 90 -76 110 5 28 3 29
-26 10 -66 -43 -254 -65 -369 -42 -107 21 -151 46 -248 145 -192 193 -225 372
-128 689 30 96 33 102 58 102 25 0 28 -4 34 -47 21 -153 214 -205 312 -85 19
23 25 25 47 15 19 -9 23 -17 20 -37 -14 -70 41 -177 109 -212 42 -22 118 -20
166 5 36 18 75 56 84 81 5 14 243 -74 243 -89 0 -7 -38 -27 -85 -45 -93 -35
-159 -68 -203 -98 -43 -30 -25 -33 25 -4 48 28 227 98 239 94 5 -2 -16 -34
-46 -72 -30 -38 -55 -75 -55 -83 0 -8 26 18 58 56 47 59 61 70 80 65 16 -3 29
2 41 17 10 12 31 22 51 24 98 8 121 -138 35 -214 -22 -19 -66 -40 -119 -57
-50 -15 -92 -35 -103 -47 -18 -22 -18 -22 2 -6 18 14 144 54 150 47 2 -2 8
-19 13 -38 l10 -35 1 34 c1 29 3 32 17 21 19 -17 36 -47 45 -85 l7 -30 1 31
c1 18 -9 46 -23 66 l-24 35 48 6 c94 11 170 69 170 130 0 20 12 42 36 70 53
58 77 119 72 179 -6 63 -42 101 -121 130 l-58 21 7 71 c4 39 15 89 25 111 27
59 25 107 -7 139 -21 21 -25 32 -20 57 7 38 -19 100 -63 147 -24 25 -31 42
-31 72 0 44 -34 80 -93 99 -19 7 -39 22 -45 34 -11 21 -11 20 -9 -8 2 -25 7
-30 36 -36 35 -7 82 -37 89 -57 2 -7 -19 -3 -54 9 -33 12 -68 18 -82 14 -36
-9 -52 9 -40 43 9 24 7 34 -15 69 -53 84 -104 113 -198 113 -56 0 -79 13 -41
23 13 4 11 5 -5 6 -17 1 -23 7 -23 25 0 33 -16 42 -24 13 -10 -41 -67 -97
-130 -129 -33 -17 -78 -44 -98 -60 -54 -43 -47 -18 15 47 42 46 62 59 102 69
39 10 55 20 72 47 12 19 29 42 37 51 11 12 13 24 7 40 -7 20 -8 20 -14 -8z
m23 -104 c0 -5 -4 -10 -10 -10 -5 0 -10 5 -10 10 0 6 5 10 10 10 6 0 10 -4 10
-10z m-242 -305 c20 -9 55 -33 77 -54 37 -35 46 -39 129 -49 101 -13 197 -52
239 -98 40 -43 93 -150 119 -239 17 -60 23 -106 23 -187 0 -58 -3 -110 -7
-113 -4 -4 -61 10 -126 30 l-119 38 -6 59 c-11 123 -110 205 -222 184 -53 -10
-42 -24 24 -32 76 -8 113 -31 140 -86 40 -83 19 -165 -51 -208 -43 -26 -111
-26 -154 0 -67 42 -95 164 -55 243 24 46 11 57 -22 18 -17 -20 -31 -28 -44
-25 -17 5 -19 14 -19 74 1 73 -13 103 -66 143 -53 40 -203 31 -244 -14 l-19
-22 35 7 c129 24 173 19 221 -21 30 -26 31 -29 27 -94 -4 -69 -23 -105 -69
-129 -56 -31 -144 -5 -179 52 -22 36 -27 107 -10 138 6 11 6 21 1 24 -10 7
-41 -20 -41 -35 0 -5 -11 -9 -25 -9 -14 0 -25 4 -25 10 0 16 84 203 123 272
42 75 72 105 124 123 52 19 175 19 221 0z m-448 -91 c0 -3 -9 -17 -20 -31 -13
-17 -20 -41 -20 -72 0 -33 -3 -42 -10 -31 -15 23 -12 93 6 118 14 20 44 31 44
16z m262 -1290 c102 -27 290 -12 401 31 15 6 17 1 17 -37 0 -38 -5 -49 -37
-80 -118 -112 -286 -114 -404 -3 -26 25 -53 45 -59 45 -11 0 -14 62 -3 73 3 4
12 2 19 -4 7 -6 37 -17 66 -25z"/>
<path d="M910 1523 c0 -5 14 -24 31 -43 l30 -35 -27 43 c-26 41 -34 50 -34 35z"/>
<path d="M1363 1333 c15 -2 37 -2 50 0 12 2 0 4 -28 4 -27 0 -38 -2 -22 -4z"/>
<path d="M851 1247 c-6 -8 -14 -28 -17 -45 -6 -28 -4 -32 14 -32 29 0 59 55
41 76 -14 18 -23 18 -38 1z"/>
<path d="M1190 1099 c-7 -11 -9 -28 -6 -36 6 -14 9 -14 26 2 23 21 27 55 5 55
-8 0 -19 -9 -25 -21z"/>
<path d="M1448 2013 c6 -2 18 -2 25 0 6 3 1 5 -13 5 -14 0 -19 -2 -12 -5z"/>
<path d="M1664 1906 c12 -23 22 -39 24 -35 4 9 -24 66 -36 73 -5 3 1 -14 12
-38z"/>
<path d="M883 1905 c-21 -15 -63 -75 -63 -90 0 -4 12 9 26 30 14 21 35 46 47
56 27 22 20 25 -10 4z"/>
<path d="M483 1125 c0 -27 2 -38 4 -22 2 15 2 37 0 50 -2 12 -4 0 -4 -28z"/>
<path d="M832 860 c0 -25 2 -37 5 -27 4 14 11 17 26 13 64 -19 129 -28 137
-20 5 5 -6 10 -28 11 -64 3 -123 24 -132 47 -7 16 -9 10 -8 -24z"/>
</g>
</svg>
